<svg xmlns="http://www.w3.org/2000/svg" viewBox="0 0 1417.32 1417.32"><defs><style>.cls-1{fill:#a9ffcb}</style></defs><g id="Logo_en_Negro" data-name="Logo en Negro"><path class="cls-1" d="M806.66 251.28V872c0 128-81.79 237-196 277.32a295 295 0 01-196 0C300.38 1109 218.53 1000.06 218.53 872v-98h196.08v98a98 98 0 10196 0V251.28z"/><path class="cls-1" d="M479.95 251.25v130.7l-130.7 65.34 130.7 65.34v130.7l-261.38-130.7V381.95l261.38-130.7zM937.4 774.02v130.7l130.7 65.34-130.7 65.34v130.7l261.38-130.7V904.72L937.4 774.02zM1068 251.22c-.77 0-1.49 0-2.27.06h-63v-.06h-65.34v392.11h65.38v-130.7h65.33a130.71 130.71 0 10-.06-261.41zm.06 196.08h-65.33V316.6h65.33a65.35 65.35 0 110 130.7z"/></g></svg>